<svg xmlns="http://www.w3.org/2000/svg" xmlns:xlink="http://www.w3.org/1999/xlink" width="194.96" height="69.924" viewBox="0 0 146.22 52.443"><symbol id="a"><path d="M.458.411.374.61.369.623c0 .006.017.025.059.029.01.001.02.002.02.019 0 .012-.012.012-.015.012L.307.68.195.683c-.006 0-.018 0-.018-.02C.177.652.187.652.2.652.26.652.266.642.275.62L.393.341.182.114.169.103A.202.202 0 0 0 .022.031C.009.03 0 .03 0 .011 0 .01 0 0 .013 0l.094.003L.219 0c.006 0 .018 0 .018.02 0 .01-.01.011-.012.011-.009.001-.04.003-.04.031 0 .016.015.032.027.045l.102.108.09.098.101-.239L.51.06C.51.052.491.035.452.031.441.03.432.029.432.012.432 0 .443 0 .447 0l.126.003L.684 0c.007 0 .019 0 .019.019 0 .012-.01.012-.018.012C.618.032.616.035.599.075.56.168.493.324.47.384c.068.07.173.189.205.217a.204.204 0 0 0 .127.051c.013.001.022.001.022.02 0 .001 0 .011-.013.011L.717.68.606.683C.6.683.587.683.587.663c0-.007.005-.01.012-.011.009-.001.04-.003.04-.031C.639.607.628.594.62.585L.458.411z"/></symbol><use xlink:href="#a" transform="matrix(9.9626 0 0 -9.9626 112.962 11.119)"/><symbol id="b"><path d="M.631.04H.2v.841C.2.911.2.96.303.96V1H0V.96C.103.96.103.911.103.881V.119C.103.089.103.04 0 .04V0h.831v.04C.728.04.728.089.728.119v.762c0 .03 0 .079.103.079V1H.528V.96C.631.96.631.911.631.881V.04z"/></symbol><use xlink:href="#b" transform="matrix(9.9626 0 0 -9.9626 123.947 13.61)"/><symbol id="c"><path d="M.144.115C.104.048.065.034.021.031.009.03 0 .03 0 .011 0 .005.005 0 .013 0l.086.003.1-.003c.006 0 .019 0 .019.019C.218.03.209.031.202.031.179.033.155.041.155.066c0 .012.006.023.014.037l.076.128h.251L.512.064C.512.034.46.031.44.031c-.014 0-.024 0-.024-.02C.416 0 .428 0 .43 0l.125.003L.668 0c.006 0 .018 0 .018.02 0 .011-.01.011-.023.011-.062 0-.062.007-.065.036L.537.692C.535.712.535.716.518.716.502.716.498.709.492.699L.144.115m.12.147.197.33.032-.33H.264z"/></symbol><use xlink:href="#c" transform="matrix(9.9626 0 0 -9.9626 134.808 11.119)"/><symbol id="d"><path d="M.71.717a.01.01 0 0 1-.011.01C.696.727.695.726.684.715L.614.638C.605.652.559.727.448.727A.48.48 0 0 1 0 .274C0 .109.118 0 .271 0c.087 0 .163.04.216.086a.33.33 0 0 1 .11.176c0 .01-.01.01-.012.01C.579.272.574.27.572.262A.325.325 0 0 0 .471.104.289.289 0 0 0 .287.031c-.09 0-.196.052-.196.208a.57.57 0 0 0 .121.336.34.34 0 0 0 .244.121C.558.696.617.619.617.503.617.463.614.462.614.452c0-.01.011-.01.015-.01.013 0 .013.002.018.02L.71.717z"/></symbol><symbol id="e"><path d="M.428.284c0 .104-.07.169-.16.169C.134.453 0 .311 0 .169 0 .07.067 0 .16 0c.133 0 .268.138.268.284M.161.022C.118.022.074.053.074.131.074.18.1.288.132.339c.05.077.107.092.135.092.058 0 .088-.048.088-.108A.527.527 0 0 0 .297.114C.262.056.207.022.161.022z"/></symbol><symbol id="f"><path d="M.141.242a.45.45 0 0 1 .153.023c.07.03.075.089.075.103 0 .044-.038.085-.107.085A.272.272 0 0 1 0 .181C0 .079.059 0 .157 0 .3 0 .384.106.384.118c0 .006-.006.013-.012.013C.367.131.365.129.359.121.28.022.171.022.159.022.081.022.072.106.072.138c0 .012.001.043.016.104h.053M.094.264c.039.152.142.167.168.167.047 0 .074-.029.074-.063C.336.264.176.264.135.264H.094z"/></symbol><symbol id="g"><path d="M.305.313c.006.026.029.118.099.118.005 0 .029 0 .05-.013A.058.058 0 0 1 .406.364c0-.016.011-.035.038-.035.022 0 .054.018.054.058 0 .052-.059.066-.093.066C.347.453.312.4.3.377a.11.11 0 0 1-.108.076C.088.453.031.324.031.299c0-.01.01-.01.012-.01.008 0 .011.002.013.011.034.106.1.131.134.131.019 0 .054-.009.054-.067C.244.333.227.266.19.126.174.064.139.022.095.022c-.006 0-.029 0-.05.013C.07.04.092.061.092.089.092.116.07.124.055.124A.057.057 0 0 1 0 .066C0 .02.05 0 .094 0 .16 0 .196.07.199.076A.11.11 0 0 1 .307 0c.103 0 .16.129.16.154 0 .01-.009.01-.012.01C.446.164.444.16.442.153.409.046.341.022.309.022.27.022.254.054.254.088c0 .022.006.044.017.088l.034.137z"/></symbol><symbol id="h"><path d="M.077.072C.069.038.067.031.023.031.011.031 0 .031 0 .012 0 .004.005 0 .013 0l.084.003L.196 0c.005 0 .018 0 .018.02 0 .011-.01.011-.024.011-.05 0-.05.007-.05.016 0 .012.042.175.049.2C.202.218.23.183.281.183c.116 0 .241.146.241.293 0 .094-.057.16-.133.16C.339.636.291.6.258.561a.088.088 0 0 1-.09.075C.122.636.103.597.094.579A.42.42 0 0 1 .063.482c0-.01.01-.01.012-.01.01 0 .011.001.017.023.017.071.037.119.073.119.017 0 .031-.008.031-.046C.196.545.193.534.189.517L.077.072m.176.434a.161.161 0 0 0 .052.07C.34.607.369.614.386.614.426.614.45.579.45.52A.71.71 0 0 0 .399.308C.365.238.317.205.28.205.214.205.201.288.201.294L.204.31l.049.196z"/></symbol><use xlink:href="#d" transform="matrix(9.9626 0 0 -9.9626 4.787 46.525)"/><use xlink:href="#e" transform="matrix(9.9626 0 0 -9.9626 12.538 46.416)"/><use xlink:href="#f" transform="matrix(9.9626 0 0 -9.9626 17.42 46.416)"/><use xlink:href="#g" transform="matrix(9.9626 0 0 -9.9626 21.893 46.416)"/><use xlink:href="#h" transform="matrix(9.9626 0 0 -9.9626 26.984 48.239)"/><symbol id="i"><path d="M.232.01c0 .003 0 .005-.017.022C.09.158.058.347.058.5c0 .174.038.348.161.473.013.012.013.014.013.017 0 .007-.004.01-.01.01-.01 0-.1-.068-.159-.195A.727.727 0 0 1 0 .5C0 .422.011.301.066.188A.432.432 0 0 1 .222 0c.006 0 .01.003.01.01z"/></symbol><use xlink:href="#i" transform="matrix(9.9626 0 0 -9.9626 33.283 48.797)"/><symbol id="j"><path d="M.117.194C.117.26.092.299.053.299A.051.051 0 0 1 0 .246C0 .219.02.193.053.193c.012 0 .025.004.035.013l.005.003C.094.209.095.208.095.194A.242.242 0 0 0 .027.027C.016.016.016.014.016.011.016.004.021 0 .026 0c.011 0 .091.077.091.194z"/></symbol><symbol id="k"><path d="M.118.078C.108.039.106.031.027.031.01.031 0 .031 0 .011 0 0 .009 0 .027 0h.357C.542 0 .66.118.66.216c0 .072-.058.13-.155.141.104.019.209.093.209.188 0 .074-.066.138-.186.138H.192c-.019 0-.029 0-.029-.02 0-.011.009-.011.028-.011.002 0 .021 0 .038-.002C.247.648.256.647.256.634L.252.615.118.078m.151.288.062.248C.34.649.342.652.385.652h.129C.602.652.623.593.623.549.623.461.537.366.415.366H.269M.224.031a.11.11 0 0 0-.022.001C.192.033.189.034.189.042c0 .003 0 .005.005.023l.069.279h.189C.548.344.567.27.567.227A.205.205 0 0 0 .36.031H.224z"/></symbol><use xlink:href="#c" transform="matrix(9.9626 0 0 -9.9626 36.52 46.306)"/><use xlink:href="#j" transform="matrix(9.9626 0 0 -9.9626 44.5 48.229)"/><use xlink:href="#k" transform="matrix(9.9626 0 0 -9.9626 48.495 46.306)"/><symbol id="l"><path d="M.232.5a.729.729 0 0 1-.066.312A.432.432 0 0 1 .01 1C.004 1 0 .996 0 .99 0 .987 0 .985.019.967.117.868.174.709.174.5.174.329.137.153.013.027 0 .015 0 .013 0 .01 0 .004.004 0 .01 0c.01 0 .1.068.159.195C.22.305.232.416.232.5z"/></symbol><use xlink:href="#l" transform="matrix(9.9626 0 0 -9.9626 56.696 48.797)"/><use xlink:href="#b" transform="matrix(9.9626 0 0 -9.9626 62.22 48.797)"/><use xlink:href="#c" transform="matrix(9.9626 0 0 -9.9626 73.08 46.306)"/><use xlink:href="#k" transform="matrix(9.9626 0 0 -9.9626 123.702 46.306)"/><path stroke-width=".398" stroke-dasharray=".39848,1.99255" stroke-miterlimit="10" fill="none" stroke="#000" d="m63.575 34.99 44.262-18.311"/><path stroke-width=".3979801" stroke-linecap="round" stroke-linejoin="round" fill="none" stroke="#000" d="M105.192 15.185c.898 1.181 1.937 1.485 2.829 1.417-.679.583-1.2 1.531-1.001 3.002"/><symbol id="m"><path d="M.422.885C.422.898.41.898.405.898.39.898.389.893.385.876L.328.647C.151.639 0 .512 0 .378 0 .265.103.197.214.193L.191.099A1.701 1.701 0 0 1 .17.012C.17 0 .183 0 .186 0c.015 0 .016.003.021.024l.042.168C.42.199.577.325.577.461c0 .105-.092.18-.214.185l.059.239M.221.221C.144.225.073.267.073.361c0 .1.076.241.247.257L.221.221m.134.397C.432.615.504.573.504.478A.266.266 0 0 0 .256.221l.099.397z"/></symbol><use xlink:href="#m" transform="matrix(6.9738 0 0 -6.9738 55.13 23.093)"/><symbol id="n"><path d="M.819.872c0 .03 0 .079.103.079V1H.613V.951C.716.951.716.902.716.872V.049h-.51v.823c0 .03 0 .079.103.079V1H0V.951C.103.951.103.902.103.872V.128c0-.03 0-.079-.103-.079V0h.922v.049C.819.049.819.098.819.128v.744z"/></symbol><use xlink:href="#n" transform="matrix(6.9738 0 0 -6.9738 61.329 23.414)"/><symbol id="o"><path d="M.349.604C.358.638.36.647.435.647c.025 0 .037 0 .037.021 0 .009-.007.015-.016.015L.389.68.321.679.252.68.183.683c-.006 0-.021 0-.021-.022 0-.014.011-.014.033-.014.001 0 .021 0 .038-.002C.253.643.26.642.26.631.26.625.258.618.256.61L.123.079C.115.046.112.036.037.036.01.036 0 .036 0 .014 0 .013 0 0 .016 0l.135.004L.22.003.289 0C.295 0 .31 0 .31.022.31.036.298.036.278.036c-.002 0-.023 0-.043.002C.212.04.212.044.212.053c0 .001 0 .007.004.022l.133.529z"/></symbol><symbol id="p"><path d="M.51.674A.124.124 0 0 1 .514.69C.514.695.51.704.498.704.478.704.395.696.37.694.362.693.348.692.348.671c0-.014.014-.014.026-.014C.422.657.422.65.422.642.422.635.42.629.418.62L.361.392a.12.12 0 0 1-.103.059C.13.451 0 .31 0 .166 0 .069.065 0 .151 0c.054 0 .102.031.142.07C.312.01.37 0 .396 0c.036 0 .061.022.079.053a.376.376 0 0 1 .035.1C.51.166.497.166.494.166.48.166.479.162.472.135.46.087.441.028.399.028.373.028.366.05.366.077c0 .019.002.028.005.041L.51.674M.297.135C.29.107.268.087.246.068a.158.158 0 0 0-.092-.04C.117.028.081.054.081.125c0 .053.029.163.052.203.046.08.097.095.125.095.07 0 .089-.076.089-.087A.058.058 0 0 0 .344.322L.297.135z"/></symbol><use xlink:href="#o" transform="matrix(6.9738 0 0 -6.9738 70.112 21.67)"/><use xlink:href="#p" transform="matrix(6.9738 0 0 -6.9738 74.164 21.74)"/><symbol id="q"><path d="M.623.689C.619.71.615.716.593.716.569.716.563.708.553.693L.161.125C.119.064.084.048.019.045 0 .044 0 .018 0 .017 0 .003.012 0 .016 0l.045.003.051.001.055-.001L.224 0c.007 0 .024 0 .024.028 0 .016-.015.017-.019.017-.008 0-.047.002-.047.026C.182.083.194.1.201.11l.073.107C.279.223.28.224.299.224h.303A.299.299 0 0 1 .608.195C.611.177.631.077.631.067.631.045.568.045.563.045c-.015 0-.031 0-.031-.028C.532.007.539 0 .55 0l.067.003.071.001.064-.001L.815 0c.017 0 .024.012.024.028 0 .017-.016.017-.03.017-.066 0-.067.007-.071.029L.623.689M.533.593.594.269H.31l.223.324z"/></symbol><use xlink:href="#q" transform="matrix(4.9813 0 0 -4.9813 78.405 22.672)"/><path stroke-width=".398" stroke-miterlimit="10" fill="none" stroke="#000" d="M118.796 43.816H85.09"/><path stroke-width=".398" stroke-linecap="round" stroke-linejoin="round" fill="none" stroke="#000" d="M86.964 46.207c-.378-1.435-1.222-2.112-2.072-2.39.85-.28 1.694-.957 2.072-2.392"/><symbol id="r"><path d="M.376.393A.058.058 0 0 1 .325.337C.325.31.346.3.364.3.386.3.421.316.421.364c0 .068-.078.087-.132.087C.139.451 0 .313 0 .174 0 .088.06 0 .185 0c.169 0 .248.099.248.113C.433.119.424.13.416.13.41.13.408.128.4.12.322.028.205.028.187.028.115.028.083.077.083.139c0 .029.014.138.066.207.038.049.09.077.14.077.014 0 .062-.002.087-.03z"/></symbol><symbol id="s"><path d="M.469.276c0 .111-.083.175-.181.175C.14.451 0 .312 0 .175 0 .075.073 0 .182 0c.143 0 .287.132.287.276M.183.028c-.05 0-.1.032-.1.111 0 .041.019.139.058.196.043.062.101.088.146.088.054 0 .1-.037.1-.111A.443.443 0 0 0 .331.119.187.187 0 0 0 .183.028z"/></symbol><symbol id="t"><path d="M.157.238c.028 0 .107.002.161.021.074.026.088.074.088.104 0 .055-.055.088-.124.088C.162.451 0 .359 0 .188 0 .087.063 0 .18 0c.169 0 .248.099.248.113C.428.119.419.13.411.13.405.13.403.128.395.12.317.028.2.028.182.028c-.06 0-.1.04-.1.121 0 .014 0 .034.012.089h.063M.102.266c.041.145.152.157.18.157.044 0 .081-.022.081-.06C.363.266.194.266.151.266H.102z"/></symbol><symbol id="u"><path d="M.487.373c0 .078-.047.079-.05.079C.411.452.383.425.383.399.383.382.393.374.4.368a.102.102 0 0 0 .037-.08c0-.045-.066-.26-.185-.26C.171.028.171.1.171.117c0 .046.018.102.055.195C.234.333.24.348.24.365.24.417.196.451.145.451.045.451 0 .314 0 .298 0 .285.014.285.017.285c.014 0 .015.005.018.016.024.082.067.122.107.122.017 0 .025-.011.025-.035A.168.168 0 0 0 .149.321a.565.565 0 0 1-.054-.19C.095.032.173 0 .249 0c.168 0 .238.291.238.373z"/></symbol><symbol id="v"><path d="M.361.392a.12.12 0 0 1-.103.059C.13.451 0 .31 0 .166 0 .069.065 0 .151 0c.054 0 .102.031.142.07C.312.01.37 0 .396 0c.036 0 .061.022.079.053a.376.376 0 0 1 .035.1C.51.166.497.166.494.166.48.166.479.162.472.135.46.087.441.028.399.028.373.028.366.05.366.077c0 .017.008.053.015.079l.022.09.02.076C.429.348.441.395.441.4c0 .022-.018.032-.034.032a.048.048 0 0 1-.046-.04M.297.135C.29.107.268.087.246.068a.158.158 0 0 0-.092-.04C.117.028.081.054.081.125c0 .053.029.163.052.203.046.08.097.095.125.095.07 0 .089-.076.089-.087A.058.058 0 0 0 .344.322L.297.135z"/></symbol><symbol id="w"><path d="M.22.674A.124.124 0 0 1 .224.69C.224.695.22.704.208.704.188.704.105.696.08.694.073.693.059.692.059.671c0-.014.014-.014.025-.014C.132.657.132.65.132.642.132.635.13.629.128.62L.004.126A.11.11 0 0 1 0 .095C0 .031.057 0 .105 0c.024 0 .054.008.08.053a.39.39 0 0 1 .035.1C.22.166.207.166.204.166.19.166.188.16.184.142.171.092.152.028.109.028.082.028.075.053.075.077c0 .011.003.03.006.041L.22.674z"/></symbol><use xlink:href="#r" transform="matrix(6.9738 0 0 -6.9738 90.981 41.542)"/><use xlink:href="#s" transform="matrix(6.9738 0 0 -6.9738 94.545 41.542)"/><use xlink:href="#t" transform="matrix(6.9738 0 0 -6.9738 98.513 41.542)"/><use xlink:href="#u" transform="matrix(6.9738 0 0 -6.9738 102.153 41.542)"/><use xlink:href="#v" transform="matrix(6.9738 0 0 -6.9738 106.484 41.542)"/><use xlink:href="#w" transform="matrix(6.9738 0 0 -6.9738 110.815 41.542)"/><path stroke-width=".398" stroke-miterlimit="10" fill="none" stroke="#000" d="M127.313 35.654v-17.8"/><path stroke-width=".398" stroke-linecap="round" stroke-linejoin="round" fill="none" stroke="#000" d="M124.922 19.726c1.434-.378 2.112-1.222 2.39-2.072.28.85.957 1.694 2.392 2.072"/><symbol id="x"><path d="M.334.599h.098c.02 0 .033 0 .033.022 0 .014-.013.014-.031.014H.341C.364.762.372.808.38.837.385.859.407.88.431.88.432.88.459.88.478.868A.06.06 0 0 1 .434.813c0-.022.017-.037.04-.037a.06.06 0 0 1 .057.061c0 .046-.049.071-.1.071a.139.139 0 0 1-.12-.075C.291.796.283.751.262.635H.183C.163.635.15.635.15.613.15.599.163.599.181.599h.074A18.16 18.16 0 0 0 .167.126C.162.104.145.028.097.028c-.001 0-.025 0-.044.012a.06.06 0 0 1 .044.055c0 .022-.017.037-.04.037A.06.06 0 0 1 0 .071C0 .026.047 0 .097 0c.064 0 .108.066.12.088A.85.85 0 0 1 .278.29l.056.309z"/></symbol><use xlink:href="#x" transform="matrix(6.9738 0 0 -6.9738 130.165 29.72)"/></svg>